<?xml version="1.0" encoding="UTF-8"?>
<svg width="200px" height="200px" viewBox="0 0 200 200" version="1.1" xmlns="http://www.w3.org/2000/svg" xmlns:xlink="http://www.w3.org/1999/xlink">
    <!-- Generator: Sketch 52.5 (67469) - http://www.bohemiancoding.com/sketch -->
    <title>DOC</title>
    <desc>Created with Sketch.</desc>
    <g id="DOC" stroke="none" stroke-width="1" fill="none" fill-rule="evenodd">
        <g id="docx" fill="#3396FB">
            <path d="M199.53125,31.9296875 L199.53125,169.929688 C199.553094,170.17921 199.553094,170.430165 199.53125,170.679688 C199.10625,174.073438 196.43125,176.748438 193.04375,177.173438 L114.7625,177.173438 L114.7625,156.173438 C114.7625,156.298438 114.86875,156.417188 115.00625,156.417188 L182.71875,156.417188 C183.692026,156.445908 184.511698,155.695464 184.56875,154.723437 L184.56875,150.973437 C184.565321,149.977297 183.75864,149.170617 182.7625,149.167187 L114.7625,149.167187 C114.624429,149.167187 114.5125,149.279116 114.5125,149.417188 L114.5125,135.454688 C114.5125,135.592188 114.625,135.704688 114.7625,135.704688 L182.74375,135.704688 C183.70757,135.722513 184.509433,134.967818 184.55,134.004688 L184.55,130.148438 C184.546557,129.149863 183.73608,128.342182 182.7375,128.342188 L114.76875,128.342188 C114.622349,128.361379 114.514288,128.488351 114.51875,128.635938 L114.51875,114.760938 C114.6125,114.810938 114.7,114.810938 114.76875,114.760938 L182.75,114.760938 C183.743717,114.757534 184.549403,113.954636 184.55625,112.960938 L184.55625,109.279688 C184.552807,108.281113 183.74233,107.473432 182.74375,107.473438 L114.76875,107.473438 C114.622349,107.492629 114.514288,107.619601 114.51875,107.767188 L114.51875,93.8484375 C114.51875,94.0046875 114.63125,94.1171875 114.76875,94.1421875 L182.75,94.1421875 C183.734365,94.1568004 184.552908,93.3880338 184.6,92.4046875 L184.6,88.6109375 C184.596557,87.612363 183.78608,86.8046816 182.7875,86.8046875 L114.76875,86.8046875 C114.622349,86.8238793 114.514288,86.9508511 114.51875,87.0984375 L114.51875,73.0734375 C114.51875,73.2296875 114.63125,73.3359375 114.76875,73.3609375 L182.75,73.3609375 C183.74614,73.3575084 184.552821,72.550828 184.55625,71.5546875 L184.55625,67.8046875 C184.54938,66.8085564 183.739905,66.0046638 182.74375,66.0046875 L114.76875,66.0046875 C114.633083,66.0046451 114.522142,66.1128131 114.51875,66.2484375 L114.51875,52.2921875 C114.51875,52.4234375 114.63125,52.5359375 114.76875,52.5359375 L182.75,52.5359375 C183.74614,52.5325084 184.552821,51.725828 184.55625,50.7296875 L184.55625,47.0296875 C184.55625,46.0286714 183.744766,45.2171875 182.74375,45.2171875 L114.76875,45.2171875 C114.630679,45.2171875 114.51875,45.3291163 114.51875,45.4671875 L114.51875,24.4671875 L192.91875,24.4671875 C196.6625,24.9984375 199.51875,28.1671875 199.54375,31.9359375 L199.53125,31.9296875 Z" id="路径"></path>
            <path d="M106.13125,0.1171875 L75.71875,5.6921875 L6.15625,18.6671875 C5.42004955,18.8043804 4.71088986,19.0597623 4.05625,19.4234375 C1.6102433,20.6866584 0.0723693279,23.2080004 0.06875,25.9609375 L0.06875,172.823437 C0.0462007489,173.039517 0.0462007489,173.257358 0.06875,173.473437 C0.26875,176.192187 1.9875,178.579687 4.50625,179.648437 C4.99498051,179.879478 5.51188151,180.045475 6.04375,180.142187 L59.9125,190.504687 L106.0375,199.579687 C107.992701,199.920786 110.003313,199.470979 111.626787,198.329273 C113.25026,197.187567 114.353527,195.447541 114.69375,193.492187 C114.7375,193.292187 114.75625,193.092187 114.78125,192.917187 C114.80383,192.663522 114.80383,192.408353 114.78125,192.154687 L114.78125,7.6546875 C114.845507,5.43412912 113.912124,3.30145524 112.237289,1.84202524 C110.562454,0.382595251 108.32214,-0.250250122 106.13125,0.1171875 Z M92.13125,66.8484375 L83.25625,106.735937 C81.3625,115.254687 79.41875,123.798437 77.6125,132.310937 C77.36875,133.517188 76.85625,133.917187 75.675,133.760937 C72.0907984,133.454087 68.5003739,133.224867 64.90625,133.073437 C63.85625,133.073437 63.45625,132.579687 63.25625,131.573437 C60.2,116.685937 57.1,101.723437 53.98125,86.6984375 C53.6172344,87.076915 53.4019748,87.5740093 53.375,88.0984375 C50.48125,102.167187 47.5375,116.217187 44.6625,130.285937 C44.6625,131.485937 44.05625,131.735937 42.85,131.623437 C39.7125,131.373437 36.51875,131.223437 33.375,131.060937 C32.175,131.060937 31.575,130.660937 31.325,129.323437 C27.6,109.948437 23.8375,90.5734375 20,71.2234375 C19.75,69.9296875 20,69.6796875 21.29375,69.6171875 C24.0375,69.6171875 26.73125,69.3671875 29.51875,69.0546875 C30.725,69.0546875 31.16875,69.0546875 31.36875,70.5046875 C32.70625,79.2921875 34.15625,88.0046875 35.5625,96.7921875 C36.45625,102.229687 37.3,107.673437 38.15,113.092187 C37.949539,113.515487 37.949539,114.006388 38.15,114.429687 C38.7125,115.079687 38.59375,114.429687 38.6375,114.142187 C41.7625,99.3171875 44.8875,84.4671875 47.9625,69.6171875 C48.20625,68.3234375 48.65,67.8046875 50.05625,67.8046875 C53.0875,67.8046875 56.14375,67.5171875 59.13125,67.2046875 C60.38125,67.2046875 60.78125,67.2046875 61.025,68.7046875 C64.0125,83.7296875 67.04375,98.6921875 70.1,113.579687 C70.1,114.142187 70.3875,114.629687 70.6625,115.635937 C72.35,105.667187 74,96.1984375 75.65,86.7171875 C76.7875,80.1421875 77.9,73.6046875 78.99375,66.7609375 C78.99375,65.9609375 79.4,65.5546875 80.24375,65.5546875 C83.7875,65.5546875 87.26875,65.1546875 90.8125,64.8671875 C92.2625,64.9546875 92.3125,65.6921875 92.125,66.8484375 L92.13125,66.8484375 Z" id="形状" fill-rule="nonzero"></path>
        </g>
    </g>
</svg>