<?xml version="1.0" encoding="UTF-8"?>
<svg width="200px" height="200px" viewBox="0 0 200 200" version="1.1" xmlns="http://www.w3.org/2000/svg" xmlns:xlink="http://www.w3.org/1999/xlink">
    <!-- Generator: Sketch 52.5 (67469) - http://www.bohemiancoding.com/sketch -->
    <title>PDF</title>
    <desc>Created with Sketch.</desc>
    <g id="PDF" stroke="none" stroke-width="1" fill="none" fill-rule="evenodd">
        <g id="pdf" fill-rule="nonzero">
            <path d="M198,29.6 C196.8,28.4 195.2,27.6 193.2,27.6 L120,27.6 L120,0 L0,27.2 L0,172.4 L120,200 L120,172.4 L193.2,172.4 C195.2,172.4 196.4,171.6 198,170.4 C199.2,169.2 200,167.6 200,165.6 L200,34.4 C200,32.4 199.2,30.8 198,29.6 Z M193.2,165.6 L120,165.6 L120,150.4 L182.8,150.4 L182.8,144.4 L120,144.4 L120,34.4 L193.2,34.4 L193.2,165.6 Z" id="形状" fill="#A33639"></path>
            <path d="M134.4,113.6 L182.8,113.6 L182.8,119.6 L134.4,119.6 L134.4,113.6 Z M134.4,128 L182.8,128 L182.8,134 L134.4,134 L134.4,128 Z M129.2,102.4 C130,102.8 130.8,103.2 131.6,103.2 C136,103.2 140.8,98.4 146,89.2 C152.4,86.4 159.2,84.4 166,82.8 C169.6,85.6 174,87.6 178.4,87.6 C181.2,87.6 186.8,87.6 186.8,82 C186.8,80 185.6,76 178,76 C174.4,76 170.8,76.4 167.6,77.2 C163.2,73.2 160,68.8 157.2,64 C160,54.8 160.4,48.4 158,45.2 C156.8,44 155.2,43.2 153.6,43.2 C151.6,42.8 149.6,44 148.4,46 C145.2,50.8 149.6,60.8 151.6,64.8 C149.2,72 146.4,78.8 142.8,85.6 C126.8,92.4 126.4,96.4 126.4,98 C126.4,100 127.6,101.6 129.2,102.4 Z M178.4,81.2 C182,81.2 182.8,82.4 182.8,82.8 C181.6,83.2 180.4,83.2 179.2,83.2 C177.2,83.2 175.6,82.4 173.6,81.6 C175.2,81.2 176.8,80.8 178.4,81.2 Z M153.6,48 L154.8,48 C155.6,50.8 155.6,54 154.4,56.8 C153.6,54 153.2,50.8 153.6,48 Z M154,72.4 C156,75.2 158,77.6 160.4,80 L160,80 C156.4,80.8 153.2,82 149.6,83.2 L149.6,82.8 L149.2,82.8 C150.8,79.6 152.4,76 154,72.4 Z M137.6,94.4 C136,96.4 134,98 131.6,98.8 L131.2,98.8 C132.8,96.8 135.2,95.2 137.6,94.4 Z" id="形状" fill="#A33639"></path>
            <path d="M35.2,91.6 C34.8,90.4 34,89.2 33.2,88 C32.4,86.8 31.2,86 29.6,85.6 C28,85.2 26,84.8 24,84.8 L8.8,84.8 L8.8,118.8 L16,118.8 L16,106.8 L24,106.8 C26,106.8 28,106.4 29.6,106 C31.2,105.2 32.4,104.4 33.2,103.6 C34,102.4 34.8,101.6 35.2,100 C35.6,98.8 36,97.2 36,96 C35.6,94.4 35.6,93.2 35.2,91.6 Z M28,98.4 C27.6,99.2 27.2,99.6 26.4,100 C25.6,100.4 25.2,100.8 24.4,100.8 L16,100.8 L16,90.8 L24.4,90.8 C25.2,90.8 26,91.2 26.4,91.6 C27.2,92 27.6,92.4 28,93.2 C28.4,94 28.4,94.8 28.4,96 C28.4,96.8 28.4,97.6 28,98.4 Z M99.6,91.2 L83.2,91.2 L83.2,99.2 L97.6,99.2 L97.6,104.8 L83.2,104.8 L83.2,118.8 L76,118.8 L76,84.8 L99.6,84.8 L99.6,91.2 Z M68.8,94.4 C68,92.4 66.8,90.4 65.6,89.2 C64.4,88 62.4,86.8 60.8,86 C58.8,85.2 56.8,84.8 54.8,84.8 L40,84.8 L40,118.8 L54.8,118.8 C57.6,118.8 59.6,118.4 61.6,117.6 C63.6,116.8 65.2,115.6 66.4,114 C67.6,112.4 68.8,110.8 69.2,108.4 C70,106.4 70,104 70,101.6 C70,98.8 69.6,96.4 68.8,94.4 Z M62,107.2 C61.6,108.4 60.8,109.6 60,110.4 C59.2,111.2 58.4,111.6 57.2,112 C56,112.4 55.2,112.4 54,112.4 L47.2,112.4 L47.2,90.8 L52.4,90.8 C54.4,90.8 55.6,91.2 57.2,91.6 C58.4,92 59.6,92.8 60.4,94 C61.2,94.8 61.6,96 62,97.6 C62.4,98.8 62.4,100.4 62.4,102.4 C62.4,104.4 62.4,106 62,107.2 Z" id="形状" fill="#FFFFFF"></path>
        </g>
    </g>
</svg>