<?xml version="1.0" encoding="UTF-8"?>
<svg width="200px" height="200px" viewBox="0 0 200 200" version="1.1" xmlns="http://www.w3.org/2000/svg" xmlns:xlink="http://www.w3.org/1999/xlink">
    <!-- Generator: Sketch 52.5 (67469) - http://www.bohemiancoding.com/sketch -->
    <title>PPT</title>
    <desc>Created with Sketch.</desc>
    <g id="PPT" stroke="none" stroke-width="1" fill="none" fill-rule="evenodd">
        <g fill="#077467" fill-rule="nonzero" id="形状">
            <path d="M198.422171,138.129639 C191.632643,140.422357 184.318924,139.282438 177.317223,139.501406 C176.980243,150.08913 178.190875,160.8443 176.59958,171.348301 C174.690025,176.764527 168.462131,176.513359 163.900417,176.655043 C148.180913,176.700125 132.480131,176.577761 116.760626,176.629283 L116.760626,199.846281 L102.888273,199.846281 C68.6847792,193.42538 34.4064006,187.493936 0.184185385,181.279123 C0.159223824,127.097539 0.159223824,72.9223963 0.184185385,18.7408128 C34.5873716,12.5453198 69.0404805,6.44643017 103.437426,0.147893388 L116.760626,0.147893388 L116.760626,41.9449308 L132.542534,41.9449308 C133.179052,33.6499256 129.572116,20.4925531 139.662802,17.0921161 C153.610039,15.4112184 167.763209,16.9311105 181.797812,16.3192897 C187.339265,16.8409475 194.42209,14.9410822 198.596901,19.8292103 C199.795053,23.1523647 199.620323,26.79753 199.795053,30.3074506 C199.720169,62.0255413 199.670246,93.7822736 199.807534,125.487484 C199.720169,129.718709 199.795053,134.09162 198.422171,138.129639 Z M73.2340124,66.0055983 C63.0934034,56.5062717 48.2537922,62.012661 36.0288981,61.6069271 C35.9352925,86.3244971 36.1412248,110.996986 35.9103309,135.714556 C40.4221219,136.216893 44.9463936,136.687029 49.4769057,137.157165 C49.464425,128.024931 49.4769057,118.931338 49.5018673,109.818425 C55.0308392,110.050273 60.8531089,110.404485 65.9452547,107.706032 C80.2669147,100.435022 82.8504298,78.1904971 73.2340124,66.0055983 Z M116.760626,48.90037 C116.735665,52.7902638 116.735665,56.6415163 116.760626,60.5185295 L154.895557,60.5185295 L154.895557,93.0352079 L116.760626,93.0352079 C116.735665,96.9122213 116.735665,100.763474 116.760626,104.640487 L154.895557,104.640487 C154.870595,107.731793 154.870595,110.848861 154.895557,113.920846 L116.760626,113.920846 C116.735665,117.81074 116.735665,121.661992 116.760626,125.539006 L154.895557,125.539006 C154.870595,128.630312 154.870595,131.734499 154.895557,134.825805 L116.760626,134.825805 C116.735665,138.702818 116.735665,142.566951 116.760626,146.443964 L154.895557,146.443964 C154.870595,149.528831 154.870595,152.633017 154.895557,155.724324 L116.760626,155.724324 C116.735665,160.374164 116.735665,165.011123 116.760626,169.660963 L168.337324,169.660963 L168.337324,48.90037 L116.760626,48.90037 Z M193.018006,23.3648919 C176.487253,23.7319845 159.887856,22.553424 143.407027,24.0604357 C152.567897,34.2359857 166.739788,37.8296293 177.273541,46.4724066 C177.379627,74.3778864 177.273541,102.270486 177.317223,130.188845 L193.018006,130.188845 L193.018006,23.3648919 Z M49.8201263,97.3952378 C49.364579,89.6412112 49.4394635,81.8614236 49.4893864,74.0880762 C53.913812,73.8304674 59.4802264,72.9996787 62.4444044,77.4305512 C64.9155928,81.9773475 64.7283816,87.8959112 62.6378561,92.5650717 C60.0481005,97.3308355 54.3069558,96.8606994 49.8201263,97.3952378 Z"></path>
        </g>
    </g>
</svg>