<?xml version="1.0" encoding="UTF-8"?>
<svg width="200px" height="200px" viewBox="0 0 200 200" version="1.1" xmlns="http://www.w3.org/2000/svg" xmlns:xlink="http://www.w3.org/1999/xlink">
    <!-- Generator: Sketch 52.5 (67469) - http://www.bohemiancoding.com/sketch -->
    <title>XSL</title>
    <desc>Created with Sketch.</desc>
    <g id="XSL" stroke="none" stroke-width="1" fill="none" fill-rule="evenodd">
        <g id="xsl" fill="#1F7244" fill-rule="nonzero">
            <path d="M146.424242,85.7634409 L178.29912,85.7634409 L178.29912,65.9816227 L146.424242,65.9816227 L146.424242,85.7634409 Z M146.424242,110.96305 L178.29912,110.96305 L178.29912,91.1687195 L146.424242,91.1687195 L146.424242,110.96305 Z M146.424242,60.5888563 L178.29912,60.5888563 L178.29912,40.8070381 L146.424242,40.8070381 L146.424242,60.5888563 Z M146.424242,160.423851 L178.29912,160.423851 L178.29912,140.623265 L146.424242,140.623265 L146.424242,160.423851 Z M192.944673,21.0127077 L116.288563,21.0127077 C115.368915,21.0127077 114.499316,21.200391 113.698534,21.5382209 L113.698534,0.167350929 L0,22.8144673 L0,177.340371 L113.698534,200 L113.698534,179.692669 C114.51785,180.039916 115.398698,180.218639 116.288563,180.218182 L192.938416,180.218182 C196.742131,180.218182 199.832649,176.983773 199.832649,173.023656 L199.832649,28.2197458 C199.832649,24.2408602 196.742131,21.0252199 192.938416,21.0252199 L192.944673,21.0127077 Z M76.6561095,133.434995 L62.8739003,132.534115 L52.5450635,106.446139 L41.3466276,130.738612 L28.4215054,129.837732 L44.7874878,100.152493 L30.1481916,67.7771261 L43.0670577,66.8762463 L51.6817204,91.1624633 L53.3958944,91.1624633 L62.8739003,65.0744868 L76.6561095,64.1798631 L59.4330401,98.3632454 L76.6561095,133.441251 L76.6561095,133.434995 Z M191.224242,171.221896 L113.698534,171.221896 L113.698534,160.430108 L139.536266,160.430108 L139.536266,140.629521 L113.698534,140.629521 L113.698534,136.143891 L139.536266,136.143891 L139.536266,116.355816 L113.698534,116.355816 L113.698534,110.96305 L139.536266,110.96305 L139.536266,91.1687195 L113.698534,91.1687195 L113.698534,85.7634409 L139.536266,85.7634409 L139.536266,65.9816227 L113.698534,65.9816227 L113.698534,60.5888563 L139.536266,60.5888563 L139.536266,40.8070381 L113.698534,40.8070381 L113.698534,30.0089932 L191.224242,30.0089932 L191.224242,171.221896 Z M146.430499,136.143891 L178.29912,136.143891 L178.29912,116.355816 L146.424242,116.355816 L146.424242,136.137634 L146.430499,136.143891 Z" id="形状"></path>
        </g>
    </g>
</svg>