<?xml version="1.0" encoding="UTF-8"?>
<svg width="200px" height="200px" viewBox="0 0 200 200" version="1.1" xmlns="http://www.w3.org/2000/svg" xmlns:xlink="http://www.w3.org/1999/xlink">
    <!-- Generator: Sketch 52.5 (67469) - http://www.bohemiancoding.com/sketch -->
    <title>Icon</title>
    <desc>Created with Sketch.</desc>
    <g id="Icon" stroke="none" stroke-width="1" fill="none" fill-rule="evenodd">
        <g id="zip" transform="translate(6.000000, 10.000000)">
            <path d="M178.125,174.414062 L9.375,174.414062 C4.21875,174.414062 0,170.820312 0,166.445312 L0,118.164062 L187.5,118.164062 L187.5,166.445312 C187.5,170.820312 183.28125,174.414062 178.125,174.414062 Z" id="路径" fill="#5ACC9B"></path>
            <path d="M9.375,5.6640625 L178.125,5.6640625 C183.28125,5.6640625 187.5,9.2578125 187.5,13.6328125 L187.5,61.9140625 L0,61.9140625 L0,13.6328125 C0,9.2578125 4.21875,5.6640625 9.375,5.6640625 Z" id="路径" fill="#6CCBFF"></path>
            <polygon id="路径" fill="#FFD766" points="0 61.9140625 187.5 61.9140625 187.5 118.164062 0 118.164062"></polygon>
            <polygon id="路径" fill="#FF5562" points="60.4166667 0.0390625 127.083333 0.0390625 127.083333 180.039062 60.4166667 180.039062"></polygon>
            <path d="M80.46875,15.0390625 L92.96875,15.0390625 L92.96875,24.4140625 L80.46875,24.4140625 L80.46875,15.0390625 Z M92.96875,5.6640625 L105.46875,5.6640625 L105.46875,15.0390625 L92.96875,15.0390625 L92.96875,5.6640625 Z M92.96875,24.4140625 L105.46875,24.4140625 L105.46875,33.7890625 L92.96875,33.7890625 L92.96875,24.4140625 Z M80.46875,33.7890625 L92.96875,33.7890625 L92.96875,43.1640625 L80.46875,43.1640625 L80.46875,33.7890625 Z M92.96875,43.1640625 L105.46875,43.1640625 L105.46875,52.5390625 L92.96875,52.5390625 L92.96875,43.1640625 Z M80.46875,52.5390625 L92.96875,52.5390625 L92.96875,61.9140625 L80.46875,61.9140625 L80.46875,52.5390625 Z M92.96875,61.9140625 L105.46875,61.9140625 L105.46875,71.2890625 L92.96875,71.2890625 L92.96875,61.9140625 Z M80.46875,71.2890625 L92.96875,71.2890625 L92.96875,80.6640625 L80.46875,80.6640625 L80.46875,71.2890625 Z M92.96875,80.6640625 L105.46875,80.6640625 L105.46875,90.0390625 L92.96875,90.0390625 L92.96875,80.6640625 Z M80.46875,90.0390625 L92.96875,90.0390625 L92.96875,99.4140625 L80.46875,99.4140625 L80.46875,90.0390625 Z M92.96875,99.4140625 L105.46875,99.4140625 L105.46875,108.789062 L92.96875,108.789062 L92.96875,99.4140625 Z M80.46875,108.789062 L92.96875,108.789062 L92.96875,118.164062 L80.46875,118.164062 L80.46875,108.789062 Z M92.96875,118.164062 L105.46875,118.164062 L105.46875,127.539062 L92.96875,127.539062 L92.96875,118.164062 Z M80.46875,127.539062 L92.96875,127.539062 L92.96875,136.914062 L80.46875,136.914062 L80.46875,127.539062 Z M92.96875,136.914062 L105.46875,136.914062 L105.46875,146.289062 L92.96875,146.289062 L92.96875,136.914062 Z M80.46875,146.289062 L92.96875,146.289062 L92.96875,155.664062 L80.46875,155.664062 L80.46875,146.289062 Z M80.46875,165.039062 L92.96875,165.039062 L92.96875,174.414062 L80.46875,174.414062 L80.46875,165.039062 Z M92.96875,155.664062 L105.46875,155.664062 L105.46875,165.039062 L92.96875,165.039062 L92.96875,155.664062 Z" id="形状" fill="#FFFFFF" fill-rule="nonzero"></path>
        </g>
    </g>
</svg>